<svg id="Слой_1" xmlns="http://www.w3.org/2000/svg" viewBox="0 0 900 700"><style>.st0{fill:#acb3bd}</style><path class="st0" d="M605.7 49.4c52.8 48.3 105.3 96.4 158.1 144.7.5.4.5 1.1.1 1.6-.3.4-.7.8-1.1 1.2-33.6 30.9-67.3 61.5-100.8 92.3-32 29.3-64.1 58.6-96.1 87.9-53 48.5-106 96.9-159.1 145.4-32.2 29.5-64.3 58.8-96.3 88.2-1.8 1.7-4 2.6-6.8 2.8-3 .2-6 1-9.2 1.6-4.2.6-8.2 1.6-12.6 2.2-3.3.6-6.6 1.6-9.7 2.2-2.6.6-5.1 1-7.7 1.6-3.3.6-6.8.8-10.1 1.4-3.3.6-6.6 1.4-9.9 1.9-6 1-12.2 2-18.1 3.1-3.3.6-6.6 1.2-9.9 1.9-4 .6-7.9 1.4-11.7 2-3.3.6-6.9 1.6-10.3 2.2-2.8.6-5.8 1.2-8.6 1.6-5.8.8-11.7 1.7-17.4 2.8-2.4.4-4.9 1-8 1.9 1.3.4 2 .6 2.8.6h4.2c88.4 0 271.2.6 271.5 1 1.3 1.7 3.1 2.6 5.5 2.8 4.9.6 8.6 2.4 10.5 7 1.1 2.6 3 4.8 2.6 7.9 0 .6.4 1.4.6 1.4 2.8.6 2 2.6 2 4.3v16.8c0 1.6.6 3.4-2 4-.4 0-.7 1.2-.7 1.7.4 4.4-2.6 7.7-4.7 11.1-1.1 1.7-4.4 2.9-6.8 3.4-4.7 1-9.5 1.6-14.4 1.6-96.3-.2-192.8 0-289.1 0-4.2 0-8.2.6-12.2-1.4-3.5-1.7-8-1.4-11.5-3.8-.2-.2-.6-.3-1-.4-.3-.1-.6-.3-.7-.6-1.4-3.5-4.7-6.3-4.3-10.4.2-1.2 0-2.2-1.7-2.9-.6-.2-.9-1.9-.9-2.8-.2-4.4 0-9.1 0-13.5v-22.2c0-5.7.6-10.9 2.6-16.3.9-2.6.9-5.7 1.7-8.4.7-3.6 1.7-7 2.4-10.7.6-2.4 1.1-4.8 1.5-7.2.6-3.2.9-6.3 1.7-9.6.6-3.1 1.7-6 2.4-8.9.6-2.4 1.1-4.8 1.5-7.2.6-3.1.9-6.2 1.5-9.3.6-2.8 1.1-5.5 1.7-8.2 1.3-6 2.4-11.9 3.8-17.8.6-2.8 1.3-5.5 1.8-8.2.7-3.8 1.5-7.7 2.4-11.5.7-3.1 1.7-6 2.4-9.1.6-2.6 1.3-5.3 1.7-7.9.9-5.3 1.8-10.7 3-15.9 1.1-5.3 2.6-10.5 4-15.8.2-.4.2-.8 0-1.2 0-3.6 1.5-6.5 4.4-9.1 32.9-29.9 65.8-60 98.7-90.1 38.8-35.5 77.6-70.9 116.4-106.4 37.8-34.6 75.9-69.4 114-104 40.2-36.8 80.6-73.6 120.6-110.4l.1-.1c1-.7 2.1-1.6 3.2-2.5.6-.8 1.4-.8 2-.3z"/><path class="st0" d="M764.2 700H437.1l1.7-58.7h325.4"/></svg>