<svg id="Слой_1" xmlns="http://www.w3.org/2000/svg" viewBox="0 0 2800 700"><style>.st0{fill:#fff}.st1{fill:#1976d2}</style><g id="XMLID_4_"><g id="XMLID_26_"><path id="XMLID_42_" class="st0" d="M2950.1-85.3H-131.8c-14 0-14 0-14 13.7V792c-4.6-.9-1.6-4.6-1.6-6.4-.2-56.1-.2-112.3-.2-168.4 0-231.7 0-463.4-.2-695.1 0-7.1.7-9.5 9.1-9.5 1026.9.2 2053.8.2 3080.6.4 2.7.1 6.2-2.1 8.2 1.7z"/><path id="XMLID_41_" class="st1" d="M1266.7 532.5c-13.1 17.5-26.8 29.7-44.2 37.5-59.9 26.8-163.6 10-188.4-95.4-11.3-48-7.1-94.8 21.3-136.9 24.4-36.2 60.1-53.3 103.2-55.5 29.8-1.5 57.9 3.6 82.4 21.8 9.3 6.9 16.9 15.5 25.7 26.4v-11.5c0-46 .2-92.1-.2-138.3 0-7.6 2.2-9.6 9.6-9.5 17.8.5 35.9.5 53.7 0 7.3-.2 9.1 2 9.1 9.1-.2 65.7-.2 131.6-.2 197.3 0 63-.2 126.1.2 189.1 0 8.7-2.5 10.6-10.7 10.4-18.2-.5-36.4-.4-54.6 0-5.6.2-7.5-1.5-7.3-7.1.8-11.4.4-23.1.4-37.4z"/><path id="XMLID_40_" class="st1" d="M1499.5 531.7c0 13.8-.5 25.7.2 37.3.4 7.3-2.2 8.6-8.7 8.4-18.2-.4-36.4-.5-54.6 0-7.1.2-8.6-2.2-8.4-8.7.2-56.8.2-113.4.2-170.2 0-72.3.2-144.3-.2-216.6 0-8.2 1.8-10.9 10.4-10.6 17.5.7 35.1.5 52.8 0 6.7-.2 8.7 1.6 8.6 8.6-.4 47.7-.2 95.2-.2 142.9v8.2c7.8-9.3 14.4-17.5 22.6-24 57-44.6 152.2-28 190 35.3 34 57 34.8 117 2.9 174.9-27.1 49.3-73.7 65.9-127.9 62.6-30.9-1.8-60.2-12.6-87.7-48.1z"/><path id="XMLID_39_" class="st1" d="M2544.2 406.1c8.9-9.1 16-16.4 23.1-23.7 30.6-30.8 61.2-61.5 91.9-92.3 2-2 3.8-4.7 7.5-4.7h80.4c-10.6 11.1-19.5 20.7-28.6 30.2-24.6 25.5-49.1 51.1-74.1 76.4-4.6 4.6-4.7 7.5-1.3 12.7 34.8 53.7 69.2 107.6 103.7 161.3 2 3.1 3.8 6.2 5.8 9.1-1.8 3.1-4.6 1.8-6.7 1.8-23.3.2-46.8-.2-70.1.2-6 .2-9.3-1.8-12.4-6.9-23.1-37.7-46.6-75.2-69.9-112.8-3.5-5.6-5.1-7.6-10.6-1.5-10.7 12.4-22.4 23.8-34 35.5-3.5 3.5-4.9 7.1-4.9 12 .2 22.2 0 44.2.2 66.4 0 5.5-1.3 7.3-7.1 7.3-18.2-.4-36.4-.5-54.6 0-7.8.2-10.2-1.6-10.2-9.8.4-76.4.2-152.9.2-229.3 0-52.2.2-104.3-.2-156.5 0-8.6 2.5-10.6 10.7-10.4 16.9.5 34 .7 51 0 8.9-.4 10.2 2.9 10.2 10.7-.4 70.4-.2 140.7-.2 211.1.2 3.6.2 6.9.2 13.2z"/><path id="XMLID_38_" class="st1" d="M225.1 494.4c9.1-24 17.5-45.7 25.7-67.3 28-74.4 56.2-148.9 84.1-223.3 2.5-6.7 5.6-9.1 12.9-8.9 21.8.5 43.7.2 67 .2-5.8 14.7-11.1 28.6-16.7 42.4-44.3 110.2-88.8 220.5-132.6 331-2.7 6.7-5.8 9.1-13.1 8.9-19.7-.5-39.5-.5-59.2 0-6.4.2-9.5-1.6-11.8-7.8-43.9-111.4-88.1-222.8-132.3-334.2-5.3-13.1-10.4-26.2-15.8-40.4 25.8 0 50.4.2 74.8-.2 6.2 0 6.6 4.6 7.8 8.2 17.1 45.5 34.2 91.2 51.3 136.9 18.9 50.6 37.9 101.4 57.9 154.5z"/><path id="XMLID_37_" class="st1" d="M598.7 543.7c-37.3 41.7-106.1 44.2-144.1 27.5-36.4-16-55.9-50.4-52.2-92.1 3.1-36.2 29.3-63.5 69.5-72.8 18.2-4.2 36.6-5.1 55-5.1 21.3 0 42.4-.4 63.7.2 7.5.2 8.6-2.7 8-8.9-2-28-18.2-45.5-46.2-50.1-35.3-5.8-67.3 4-97.6 20.7-8.2 4.6-11.3 3.6-14.9-4.6-5.3-11.8-11.8-23.1-17.8-34.8-1.6-3.3-2.9-5.6 1.5-8 53.1-30.4 109.6-42.2 169.6-28.2 47.5 11.1 74.1 44.2 75.7 92.8 1.3 39.1.5 78.3.5 117.4 0 24 0 47.9.4 71.9 0 5.6-1.3 7.8-7.5 7.8-18.7-.4-37.7-.4-56.4 0-5.5 0-7.5-1.5-7.3-7.1.5-8.2.1-16.4.1-26.6z"/><path id="XMLID_36_" class="st1" d="M2073.3 416.3c0 97.4-52.4 154.9-135 162.9-45.7 4.4-88.1-4.2-124.5-34.2-26.9-22.2-41.7-51.3-47.3-85.5-5.8-36-2.2-70.8 15.5-103.2 23.5-43.1 61.9-65.2 109.6-72.1 36.8-5.3 72.8-1.8 106.1 15.7 52.5 27.6 74.7 73.3 75.6 116.4z"/><path id="XMLID_35_" class="st1" d="M2413.7 445.5c-.7 39.3-19.8 83.5-67.2 112.5-57.1 35.1-143.1 28.9-193.7-13.8-26.4-22.2-40.8-51.3-46.2-85.2-5.6-36-1.8-70.8 15.8-103 23.7-42.8 61.7-64.6 109-71.3 37.1-5.3 73.3-1.5 107 15.8 48.9 24.8 75.3 71.2 75.3 145z"/><path id="XMLID_34_" class="st1" d="M747.3 374.3c0-64.2.2-128.5-.2-192.7 0-8 2-10.4 10-10 18.2.5 36.4.4 54.6 0 5.6-.2 7.1 1.8 7.1 7.3-.2 130.7-.2 261.4 0 392 0 5.1-1.5 6.7-6.7 6.6-18.6-.4-36.9-.5-55.5 0-7.5.2-9.6-1.8-9.6-9.5.4-64.7.3-129.3.3-193.7z"/><path id="XMLID_33_" class="st1" d="M974.8 432.5c0 44.8-.2 89.7.2 134.5.2 8.7-2.7 10.6-10.7 10.2-18.2-.5-36.4-.4-54.6 0-5.6.2-7.3-1.6-7.1-7.1.2-92.8.2-185.5 0-278.3 0-5.6 1.8-7.3 7.3-7.3 18.7.2 37.7.4 56.4 0 6.9-.2 8.7 2.2 8.7 8.7-.4 46.5-.2 92.9-.2 139.3z"/><path id="XMLID_32_" class="st1" d="M977.1 201.9c0 23.5-15.5 39.1-38.2 39.1-23.3 0-38.8-15.8-38.6-39.9 0-23.8 15.5-39.1 39.3-38.9 22.6.1 37.5 15.9 37.5 39.7z"/><path id="XMLID_31_" class="st0" d="M1184.4 343.7c45.5 0 79.4 32.4 82.1 78.6 1.6 26.9-3.1 52.2-22.2 72.4-22.6 24-50.8 30.6-82.3 22.8-31.3-7.8-49.3-29.1-57.3-59.5-5.5-20.7-4.6-41.3 2.9-61.5 12.8-33.7 40.6-52.8 76.8-52.8z"/><path id="XMLID_30_" class="st0" d="M1663.5 429.1c0 45-23.3 77.2-61.5 86.8-48.6 12.2-94.5-19.5-101-69.3-2.7-21.7-.7-42.4 9.5-61.7 16.7-31.9 49.3-46.8 87.5-40.8 31.1 4.9 57 31.1 63.5 64.4 1.4 7.3 2.5 14.6 2 20.6z"/><path id="XMLID_29_" class="st0" d="M554.3 449.8c12.4 0 24.8.4 37.3-.2 5.6-.2 6.9 1.8 7.1 7.3.7 38.6-22.2 63.5-62.6 67.7-14.2 1.5-28.4 1.6-41.9-4-13.1-5.6-21.7-14.9-23.8-29.5-2.7-18.6 5.5-32.2 23.5-37.5 8.4-2.5 17.1-3.6 26-3.6 11.5-.2 23-.2 34.4-.2z"/><path id="XMLID_28_" class="st0" d="M1836.4 433.4c-.2-42.2 22-75.2 57.1-85.7 53.5-16 103 18.2 107 73.9 1.8 26.6-2.5 51.5-20.9 71.9-23.7 26.2-53.5 31.9-86.3 22.4-32.8-9.6-49.5-33.9-55.3-66.4-1.1-5.7-1.3-11.5-1.6-16.1z"/><path id="XMLID_27_" class="st0" d="M2340.7 424.3c4.4 47.9-25.1 88.8-66.6 94.5-62.8 8.6-102.5-37.7-96.6-97.2 4-40.2 27.3-67.9 61.3-75.5 53.1-11.8 98.1 21.8 101.9 76.3.2 1.2 0 2.5 0 1.9z"/></g></g></svg>